<svg id="Layer_1" data-name="Layer 1" xmlns="http://www.w3.org/2000/svg" viewBox="0 0 1706.69 950.79"><defs><style>.cls-1{fill:#fff;}.cls-1,.cls-2{stroke:#231f20;stroke-miterlimit:10;stroke-width:5px;}.cls-2{fill:none;}</style></defs><path class="cls-1" d="M1118.65,898.33c-1-1.6-1.73-2.62-2.28-3.74-8-16.42-15.45-33.19-24.22-49.22a1220.55,1220.55,0,0,0-79.63-126.59,917,917,0,0,0-118.2-134.89C874.94,565.74,854.14,549,833,532.82c-46.28-35.4-96.78-63.26-152-82.35-60-20.74-121.66-28.07-184.79-23.73-31.6,2.17-62.52,8.34-93,16.95A420.67,420.67,0,0,0,306,484.61c-47.74,27.65-87.67,65-125.62,104.23-39.82,41.17-71.2,88.61-94.77,141C57.35,792.65,45.75,858.21,52.71,927.05a388.74,388.74,0,0,0,29.07,113.48c27.52,64.86,69.07,119.6,121.92,165.82,53.52,46.81,114.14,81.47,182.16,102.41a460.6,460.6,0,0,0,153.29,20.59c32.42-1.18,64.18-5.51,95.34-14.22,11.94-3.33,23.53-8,37-12.57,1.95,2.31,4.3,5.58,7.13,8.37,10.91,10.74,21.56,21.78,33,31.88,32.27,28.35,68.88,35.79,109.61,21.31,21.82-7.76,41.62-19.31,60.24-32.89,39.47-28.8,73.81-63.15,105.51-100.07q36-42,69.76-86c20.06-26.1,39.5-52.78,57.64-80.25,39.63-60,79.4-119.8,127.8-173.33,24.18-26.75,49.91-51.74,79.64-72.32,18.15-12.56,37.39-23,58.87-28.73,30.72-8.16,59.5-4.1,85.22,15.16,23.59,17.67,39.6,41,48.86,68.92.86,2.62,1.77,5.22,3,8.76,2.34-2.91,3.69-4.76,5.21-6.46,8.87-9.9,17.3-20.25,26.78-29.52,11.3-11,24.65-19.5,40.19-23.17,20-4.74,38.25-1.64,52.82,14.55,10.72,11.91,16.94,26.12,21.88,41,5.49,16.55,6.19,33.86,8.48,51,2.73,20.42,1.11,40.48-1.81,60.52-5.39,36.94-20.83,70-42,100.19-34,48.44-81.31,76-139.14,86.3-35.33,6.32-70.35,5.16-105.54-2-39.58-8.09-76.16-22.73-109.66-45.26-4.76-3.2-10-5.7-15-8.52a193.19,193.19,0,0,0,14.7,21.69c26,34.6,57.34,62.81,97.18,80.63a251,251,0,0,0,64,18.44c15.6,2.42,31.66,2.19,47.53,2.52,38.45.81,74.34-9.52,107.68-27.8,37.19-20.4,67.83-48.81,93.64-82.39,43.78-57,66-121.55,67.22-193.26.28-17.2,1.82-34.48-1.67-51.66-2.24-11-2.43-22.46-4.93-33.39a324,324,0,0,0-45.15-105.82c-14.92-22.76-32.78-42.83-56.68-56.62-16.21-9.36-33.59-14.43-52.51-11.63s-35.07,12-49.64,24c-6.6,5.45-13,11.2-19.92,17.26-4.36-5.41-8.19-10.37-12.25-15.13-24.49-28.77-52.64-52.5-88.75-65.73-28.11-10.29-56.28-11.54-85.1-3.32-31.68,9-57.39,27.79-80.49,50.12-39.07,37.78-68.43,83-94.93,130C1145.53,845.25,1132.69,871.46,1118.65,898.33Z" transform="translate(-48.24 -423.04)"/><path class="cls-2" d="M944.48,1016c-21.06,13.7-40.15,26.36-59.48,38.66A1048.44,1048.44,0,0,1,771.41,1117a655.64,655.64,0,0,1-125.53,45.1c-39.87,9.75-80.29,15.93-121.4,14.93-72.24-1.76-138.57-20.94-193.91-69.71C293.91,1075,269.16,1035,257.06,987.56c-19.25-75.36-4.69-145,37.82-209.12,30.07-45.32,71.28-78.57,118.82-104.3a285.78,285.78,0,0,1,95-32,296.13,296.13,0,0,1,87.32-.21c67.46,10,127.71,38,184.55,74.26,43,27.46,82.77,59.06,120.51,93.37,40.19,36.53,77.55,75.77,113.77,116.17,14.61,16.3,29,32.79,43.52,49.2,5.81,6.59,5.83,6.62,1.47,13.62-36.18,58.07-81,108.57-132.64,153.36-34.62,30.06-71.59,57-108.93,83.45-2.46,1.75-5,6-8.3,2.29s1.1-6.13,3.27-8c24-20.86,44-45.38,62-71.29a717,717,0,0,0,39.75-65.07c10.57-19.31,19.07-39.76,28.36-59.76C944.08,1021.82,943.93,1019.72,944.48,1016Z" transform="translate(-48.24 -423.04)"/></svg>